<svg width="100" height="55" viewBox="0 0 100 55" fill="none" xmlns="http://www.w3.org/2000/svg">
<path d="M41.3602 0.774714C25.0204 1.06392 17.4288 1.49772 16.8504 2.07612C15.6213 3.30523 16.995 3.59443 27.4786 3.81133C35.9377 4.02823 37.1668 4.24513 39.9865 5.83574C43.5293 7.78785 45.1922 10.3907 45.1922 13.7888C45.1922 18.8498 41.5771 23.3324 35.7931 25.2845C34.4194 25.7906 27.7678 26.369 21.1161 26.5859C10.5603 26.9475 8.89737 27.1644 8.31897 28.2489C7.37907 29.9118 8.46357 30.201 17.2842 30.3456C25.6711 30.5625 30.949 31.9362 33.841 34.8282C35.7931 36.7803 35.9377 37.3587 35.6485 40.8291C35.5039 42.9981 34.7086 45.4563 33.9133 46.5409C30.6598 51.0235 21.1161 53.554 7.23447 53.554C3.47485 53.554 0.221328 53.8432 0.00442709 54.277C-0.284774 54.7831 13.5969 55 41.1433 55C79.2456 55 82.7884 54.9277 82.7884 53.8432C82.7884 52.831 82.1377 52.6864 78.3057 53.0479C71.7987 53.6263 62.2551 52.3972 58.2785 50.4451C55.6034 49.0714 54.7358 48.2038 53.9405 45.8179C52.9283 43.0704 53.0006 42.7089 54.6635 39.3831C56.0372 36.5634 57.194 35.4789 60.7367 33.5268C66.4485 30.4179 70.425 29.5503 81.7039 29.0442C89.6569 28.6827 91.1029 28.3935 91.3198 27.3813C91.5367 26.369 90.3799 26.2244 81.9208 25.9352C73.3893 25.7183 71.871 25.5014 68.6898 23.9108C61.8213 20.5127 60.809 13.8611 66.2316 8.58315C70.425 4.53433 76.4259 2.94372 89.2231 2.36532C96.5977 2.00382 99.779 1.57002 99.9959 0.919314C100.285 -0.0205907 85.4635 -0.0928911 41.3602 0.774714Z" fill="#DB241E"/>
</svg>
