<svg width="75" height="42" viewBox="0 0 75 42" fill="none" xmlns="http://www.w3.org/2000/svg">
<path d="M31.0202 1.33104C18.7653 1.54794 13.0716 1.87329 12.6378 2.30709C11.716 3.22892 12.7463 3.44582 20.6089 3.6085C26.9533 3.77117 27.8751 3.93385 29.9899 5.12681C32.6469 6.59089 33.8941 8.543 33.8941 11.0916C33.8941 14.8874 31.1829 18.2493 26.8448 19.7134C25.8146 20.093 20.8258 20.5268 15.8371 20.6895C7.92021 20.9606 6.67303 21.1233 6.23923 21.9366C5.5343 23.1838 6.34768 23.4007 12.9632 23.5092C19.2533 23.6719 23.2117 24.7021 25.3808 26.8711C26.8448 28.3352 26.9533 28.769 26.7364 31.3718C26.6279 32.9986 26.0315 34.8423 25.435 35.6556C22.9948 39.0176 15.8371 40.9155 5.42585 40.9155C2.60613 40.9155 0.165996 41.1324 0.00332032 41.4577C-0.213581 41.8373 10.1977 42 30.8575 42C59.4342 42 62.0913 41.9458 62.0913 41.1324C62.0913 40.3732 61.6033 40.2648 58.7293 40.5359C53.849 40.9697 46.6913 40.0479 43.7089 38.5838C41.7026 37.5535 41.0519 36.9028 40.4554 35.1134C39.6962 33.0528 39.7505 32.7817 40.9976 30.2873C42.0279 28.1726 42.8955 27.3592 45.5526 25.8951C49.8364 23.5634 52.8188 22.9127 61.2779 22.5331C67.2427 22.262 68.3272 22.0451 68.4899 21.2859C68.6525 20.5268 67.7849 20.4183 61.4406 20.2014C55.042 20.0388 53.9033 19.8761 51.5173 18.6831C46.3659 16.1345 45.6068 11.1458 49.6737 7.18737C52.8188 4.15075 57.3195 2.9578 66.9173 2.52399C72.4483 2.25287 74.8342 1.92751 74.9969 1.43949C75.2138 0.734558 64.0976 0.680333 31.0202 1.33104Z" fill="#DB241E"/>
</svg>
